PathFileType	4	(X/Y/Z)	\\147.46.242.158\로컬 디스크 (e)\MOCAP Data\Iguana Capture\iguana\Project 2\Capture day 5 after broken\Session 1\Take01 ddong.trc
DataRate	CameraRate	NumFrames	NumMarkers	Units	OrigDataRate	OrigDataStartFrame	OrigNumFrames
120.0	120.0	16	23	mm	120.0	1	23111
Frame#	Time	ana:head1			ana:head2			ana:bone1			ana:bone2			ana:bone3			ana:tail1			ana:tail2			ana:tail3			ana:tail4			ana:Rforefoot1			ana:Rforefoot2			ana:Rforefoot3			ana:Lforefoot1			ana:Lforefoot2			ana:Lforefoot3			ana:RhindLeg1			ana:RhindLeg2			ana:RhindLeg3			ana:RhindLeg4			ana:LhindLeg1			ana:LhindLeg2			ana:LhindLeg3			ana:LhindLeg4			
		X1	Y1	Z1	X2	Y2	Z2	X3	Y3	Z3	X4	Y4	Z4	X5	Y5	Z5	X6	Y6	Z6	X7	Y7	Z7	X8	Y8	Z8	X9	Y9	Z9	X10	Y10	Z10	X11	Y11	Z11	X12	Y12	Z12	X13	Y13	Z13	X14	Y14	Z14	X15	Y15	Z15	X16	Y16	Z16	X17	Y17	Z17	X18	Y18	Z18	X19	Y19	Z19	X20	Y20	Z20	X21	Y21	Z21	X22	Y22	Z22	X23	Y23	Z23	

7227	60.217	520.48480	114.19135	46.50744	529.52625	107.86292	47.49201	548.07532	97.95457	41.00957	575.03302	88.01340	38.87478	607.31097	75.72629	29.65104	637.57587	70.27508	20.58188	669.82245	67.65614	11.01490	705.34241	74.59028	3.69721	744.55957	87.45770	3.03014	549.44318	108.78800	30.03446	560.90515	118.32673	30.72216	548.86517	128.36302	20.14094	541.16010	86.24798	24.38828	544.44458	75.93333	16.96274	544.65613	81.09636	2.70536	607.10925	86.72770	21.48384	602.89001	102.93135	18.23407	612.52563	98.24566	3.50603	601.60962	102.46046	-0.15943	606.69269	66.40643	23.11937	613.63086	52.15757	17.44042	631.08337	47.80670	8.63496	627.70776	36.41824	2.56812	
7228	60.225	519.60309	114.58366	46.31392	528.65820	108.29699	47.27180	547.29456	98.53387	40.80289	574.32202	88.77109	38.82479	606.58856	76.12347	29.79655	636.76434	70.21673	20.73732	668.93939	67.21951	11.02209	704.45880	74.07201	3.70391	743.69659	86.89431	3.01920	548.44482	109.40014	29.70761	559.30292	119.64857	30.23901	546.89136	129.10571	20.28213	540.67194	86.62081	24.28706	544.22076	76.26788	17.05935	544.55103	81.10052	2.77843	606.65552	87.01472	21.52534	602.69556	103.32155	17.90740	612.52039	98.22318	3.46627	601.64191	102.50570	-0.09574	605.82367	66.84212	23.32421	612.95038	52.69504	17.67467	630.50488	47.81622	9.24230	627.49744	36.43383	2.82753	
7229	60.233	518.72876	114.99070	46.09311	527.79437	108.74254	47.03671	546.52106	99.13150	40.58348	573.62317	89.55399	38.75686	605.88501	76.56292	29.97266	635.95874	70.19411	20.90224	668.06323	66.81045	11.04951	703.58661	73.58627	3.73333	742.84436	86.35477	3.01019	547.42322	110.06157	29.35783	557.65112	120.94930	29.67224	544.81671	129.88019	20.29987	540.19897	87.00090	24.18686	543.99713	76.61205	17.15088	544.45728	81.12131	2.84387	606.17896	87.34889	21.55924	602.51300	103.72066	17.57626	612.51855	98.20329	3.41698	601.68469	102.55669	-0.02451	604.96869	67.29761	23.54125	612.25208	53.22160	17.94790	629.88013	47.80106	9.89778	627.28027	36.48262	3.11131	
7230	60.242	517.88141	115.40729	45.84837	526.95490	109.19439	46.79220	545.77216	99.74064	40.35501	572.95258	90.35214	38.67069	605.21625	77.03365	30.17257	635.17426	70.20896	21.07043	667.21240	66.44469	11.09582	702.74225	73.14548	3.77825	742.01807	85.85390	3.00254	546.41681	110.75914	28.99734	555.98181	122.20422	29.02435	542.70587	130.67371	20.17556	539.75238	87.38479	24.09069	543.77649	76.96147	17.23920	544.37860	81.16305	2.89928	605.69495	87.72291	21.58272	602.35950	104.12144	17.25266	612.52063	98.18787	3.35890	601.75861	102.62459	0.06753	604.14783	67.76394	23.76597	611.53601	53.71480	18.26465	629.20337	47.77085	10.59267	627.05798	36.56906	3.41527	
7231	60.250	517.07697	115.82926	45.58463	526.15662	109.64850	46.54412	545.06213	100.35547	40.12163	572.32281	91.15611	38.56710	604.59283	77.52171	30.38624	634.42133	70.25856	21.23466	666.40051	66.13328	11.15691	701.93726	72.75713	3.82955	741.22839	85.40124	2.99632	545.45917	111.47884	28.63772	554.32458	123.39562	28.30304	540.62042	131.47531	19.90093	539.34058	87.77000	24.00091	543.56055	77.31237	17.32650	544.31720	81.22883	2.94347	605.21832	88.12616	21.59337	602.24988	104.51640	16.94791	612.52679	98.17841	3.29366	601.82739	102.69001	0.15599	603.37518	68.23151	23.99291	610.79309	54.15401	18.62905	628.46429	47.74118	11.31561	626.82495	36.69407	3.73711	
7232	60.258	516.32678	116.25352	45.30806	525.41187	110.10190	46.29823	544.40118	100.97108	39.88774	571.74207	91.95685	38.44792	604.01898	78.01118	30.60115	633.70575	70.33573	21.38710	665.63519	65.88145	11.22614	701.17700	72.42328	3.87737	740.48138	85.00045	2.99227	544.57617	112.20676	28.28878	552.70435	124.51284	27.52088	538.61365	132.27583	19.47852	538.96844	88.15475	23.91895	543.35016	77.66144	17.41474	544.27338	81.31968	2.97665	604.76166	88.54535	21.58926	602.19519	104.89796	16.67167	612.53705	98.17577	3.22373	601.90735	102.76200	0.25185	602.65674	68.69057	24.21578	610.00531	54.52267	19.04437	627.64832	47.73204	12.05307	626.56537	36.85478	4.07805	
7233	60.267	515.63751	116.67795	45.02580	524.72815	110.55248	46.05985	543.79523	101.58327	39.65762	571.21381	92.74551	38.31585	603.49304	78.48527	30.80335	633.02808	70.42932	21.51986	664.91833	65.68816	11.29490	700.46124	72.14084	3.91228	739.77765	84.64947	2.99183	543.78339	112.92972	27.95775	551.13977	125.55166	26.69452	536.72534	133.06752	18.92079	538.63721	88.53764	23.84521	543.14557	78.00587	17.50507	544.24585	81.43423	3.00038	604.33386	88.96542	21.56908	602.20123	105.25880	16.43126	612.55072	98.18007	3.15229	601.99652	102.83951	0.35335	601.99036	69.13161	24.42774	609.14630	54.81052	19.51287	626.73724	47.76540	12.79016	626.25189	37.04482	4.44414	
7234	60.275	515.01093	117.10105	44.74536	524.10822	110.99869	45.83349	543.24579	102.18816	39.43517	570.73724	93.51328	38.17424	603.00836	78.92783	30.97888	632.38470	70.52512	21.62571	664.24646	65.54635	11.35360	699.78503	71.90224	3.92657	739.11407	84.34125	2.99692	543.08521	113.63595	27.64872	549.64294	126.51273	25.84325	534.97943	133.84338	18.24812	538.34497	88.91721	23.77905	542.94659	78.34322	17.59745	544.23151	81.56848	3.01743	603.94006	89.37061	21.53221	602.26758	105.59205	16.23112	612.56714	98.19047	3.08292	602.09088	102.92041	0.45744	601.36633	69.54601	24.62181	608.18402	55.01527	20.03543	625.71014	47.86224	13.51174	625.84491	37.25522	4.84712	
7235	60.283	514.44476	117.52176	44.47404	523.55023	111.43926	45.62257	542.75018	102.78189	39.22355	570.30768	94.25130	38.02675	602.55408	79.32464	31.11514	631.76843	70.60725	21.69875	663.61145	65.44379	11.39281	699.13971	71.69662	3.91518	738.48376	84.06519	3.00961	542.47528	114.31542	27.36259	548.21838	127.39965	24.98716	533.38257	134.59641	17.48593	538.08649	89.29159	23.71891	542.75275	78.67127	17.69052	544.22571	81.71594	3.03137	603.58112	89.74581	21.47878	602.38739	105.89168	16.07261	612.58539	98.20526	3.01936	602.18561	103.00146	0.55979	600.76819	69.92641	24.79139	607.08380	55.14380	20.61155	624.54517	48.03953	14.20367	625.29388	37.47606	5.30438	
7236	60.292	513.93359	117.93888	44.21842	523.04858	111.87274	45.42919	542.30237	103.36040	39.02498	569.91736	94.95089	37.87709	602.11761	79.66471	31.20231	631.17035	70.65974	21.73513	663.00262	65.36465	11.40453	698.51483	71.51125	3.87641	737.87769	83.80888	3.03172	541.93811	114.96010	27.09728	546.86389	128.21681	24.14518	531.92554	135.31879	16.66138	537.85449	89.65819	23.66260	542.56348	78.98802	17.78161	544.22333	81.86819	3.04612	603.25354	90.07771	21.40978	602.54797	106.15284	15.95408	612.60425	98.22200	2.96510	602.29205	103.09063	0.67329	600.17548	70.26734	24.93091	605.81232	55.21243	21.23918	623.22034	48.30756	14.85410	624.53894	37.69836	5.83800	
7237	60.300	513.46930	118.35098	43.98372	522.59479	112.29731	45.25406	541.89380	103.91924	38.84063	569.55707	95.60382	37.72875	601.68536	79.94131	31.23443	630.58069	70.66816	21.73358	662.40765	65.29122	11.38339	697.89935	71.33308	3.81215	737.28601	83.55994	3.06434	541.45172	115.56392	26.84835	545.57153	128.96762	23.33316	530.58588	136.00160	15.80007	537.64038	90.01381	23.60760	542.37842	79.29158	17.86715	544.21875	82.01579	3.06538	602.95081	90.35590	21.32709	602.73199	106.37215	15.87120	612.62262	98.23770	2.92304	602.37823	103.16661	0.76485	599.56610	70.56556	25.03648	604.34161	55.24638	21.91475	621.71545	48.66804	15.45452	623.51526	37.91626	6.47264	
7238	60.308	513.04279	118.75606	43.77345	522.17883	112.71069	45.09653	541.51428	104.45370	38.67057	569.21619	96.20298	37.58480	601.24548	80.15250	31.21018	629.99060	70.62109	21.69583	661.81482	65.20595	11.32761	697.28345	71.15012	3.72768	736.69910	83.30766	3.10749	540.99084	116.12269	26.60976	544.32910	129.65311	22.56230	529.33246	136.63469	14.92335	537.43512	90.35455	23.55144	542.19708	79.58022	17.94320	544.20709	82.14931	3.09207	602.66431	90.57385	21.23346	602.91968	106.54806	15.81754	612.63953	98.24918	2.89519	602.44470	103.22808	0.83628	598.91876	70.82042	25.10648	602.65289	55.27818	22.63311	620.01251	49.11330	16.00042	622.15723	38.12907	7.23265	
7239	60.317	512.64441	119.15163	43.58919	521.78986	113.11007	44.95475	541.15308	104.95897	38.51389	568.88489	96.74300	37.44776	600.78821	80.30136	31.13309	629.39258	70.51128	21.62671	661.21368	65.09326	11.23952	696.65955	70.95263	3.63105	736.10822	83.04437	3.15982	540.53021	116.63386	26.37478	543.12231	130.27142	21.83811	528.13074	137.20709	14.04641	537.22986	90.67634	23.49210	542.01910	79.85255	18.00607	544.18439	82.26065	3.12785	602.38416	90.72932	21.13256	603.09039	106.68092	15.78531	612.65363	98.25344	2.88245	602.48193	103.26250	0.87484	598.21594	71.03401	25.14192	600.73962	55.34541	23.38754	618.09717	49.62687	16.49141	620.40430	38.34289	8.13824	
7240	60.325	512.26489	119.53472	43.43050	521.41736	113.49240	44.82595	540.79962	105.43062	38.36897	568.55389	97.22101	37.31955	600.30725	80.39565	31.01128	628.78168	70.33637	21.53400	660.59680	64.94109	11.12570	696.02246	70.73378	3.53207	735.50635	82.76624	3.21853	540.04797	117.09631	26.13688	541.93671	130.81793	21.16021	526.94775	137.70793	13.17756	537.01715	90.97518	23.42830	541.84387	80.10757	18.05310	544.14844	82.34412	3.17285	602.10089	90.82446	21.02881	603.22528	106.77309	15.76623	612.66449	98.24799	2.88450	602.48352	103.26447	0.87355	597.44556	71.21107	25.14665	598.60944	55.48758	24.16954	615.95911	50.18532	16.93076	618.20605	38.57142	9.20153	
7241	60.333	511.89578	119.90224	43.29514	521.05182	113.85462	44.70675	540.44458	105.86501	38.23376	568.21582	97.63727	37.20154	599.79974	80.44696	30.85666	628.15558	70.09901	21.42790	659.95953	64.74182	10.99638	695.37012	70.49001	3.44113	734.88873	82.47334	3.27948	539.52783	117.51006	25.89047	540.75989	131.28636	20.52284	525.75732	138.12744	12.31858	536.79102	91.24790	23.35972	541.67065	80.34486	18.08314	544.09900	82.39733	3.22552	601.80658	90.86565	20.92721	603.30908	106.82888	15.75228	612.67102	98.23122	2.89987	602.45734	103.24077	0.84113	596.60229	71.35885	25.12714	596.28406	55.74275	24.96882	613.59247	50.76119	17.32421	615.52814	38.83593	10.42262	
7242	60.342	511.52982	120.25119	43.17939	520.68549	114.19411	44.59363	540.08014	106.25977	38.10625	567.86481	97.99550	37.09463	599.26648	80.46958	30.68373	627.51416	69.80651	21.32021	659.30054	64.49277	10.86454	694.70300	70.22077	3.36793	734.25232	82.16920	3.33761	538.96075	117.87619	25.63146	539.58325	131.67026	19.91607	524.54340	138.45839	11.46627	536.54742	91.49253	23.28705	541.49805	80.56477	18.09695	544.03766	82.42188	3.28277	601.49536	90.86261	20.83308	603.33228	106.85416	15.73654	612.67273	98.20256	2.92609	602.41150	103.19814	0.78631	595.68835	71.48647	25.09199	593.79901	56.14400	25.77303	610.99646	51.32664	17.67839	612.35626	39.16412	11.78651	
